# xmcd
#
# Track frame offsets: 
#        150
#        35199
#        54806
#        71107
#        95298
#        119035
#        148622
#        171465
#        196844
#        232585
#
# Disc length: 3471 seconds
#
# Revision: 1
# Processed by: cddbd v1.5.1PL2 Copyright (c) Steve Scherf et al.
# Submitted via: ExactAudioCopy v0.95a5
#
DISCID=8b0d8d0a
DTITLE=Lionel Hampton - Apple Core
DYEAR=1977
DGENRE=Jazz
TTITLE0=The man I love
TTITLE1=Lullaby of Birdland
TTITLE2=I'll never be the same
TTITLE3=Apple Core
TTITLE4=This could be the start of something big
TTITLE5=Seven come eleven
TTITLE6=On Green Dolphin Street
TTITLE7=Giant steps
TTITLE8=They say it's wonderful
TTITLE9=Stompin' at the Savoy
EXTD=YEAR: 1977
EXTT0=
EXTT1=
EXTT2=
EXTT3=
EXTT4=
EXTT5=
EXTT6=
EXTT7=
EXTT8=
EXTT9=
PLAYORDER=
